<svg id="Instagram_2" data-name="Instagram – 2" xmlns="http://www.w3.org/2000/svg" width="53" height="53" viewBox="0 0 53 53">
  <path id="Path_3" data-name="Path 3" d="M26.5,4.711c7.067,0,7.95,0,10.6.294a13.657,13.657,0,0,1,5.006.883,10.341,10.341,0,0,1,5.006,5.006,13.657,13.657,0,0,1,.883,5.006c0,2.65.294,3.533.294,10.6s0,7.95-.294,10.6a13.657,13.657,0,0,1-.883,5.006,10.341,10.341,0,0,1-5.006,5.006,13.657,13.657,0,0,1-5.006.883c-2.65,0-3.533.294-10.6.294s-7.95,0-10.6-.294a13.657,13.657,0,0,1-5.006-.883,10.341,10.341,0,0,1-5.006-5.006A13.657,13.657,0,0,1,5.006,37.1c0-2.65-.294-3.533-.294-10.6s0-7.95.294-10.6a13.657,13.657,0,0,1,.883-5.006A10.575,10.575,0,0,1,7.95,7.95a4.978,4.978,0,0,1,2.944-2.061A13.657,13.657,0,0,1,15.9,5.006c2.65-.294,3.533-.294,10.6-.294M26.5,0c-7.067,0-8.244,0-10.894.294A18.178,18.178,0,0,0,9.128,1.472,11.527,11.527,0,0,0,4.417,4.417,11.527,11.527,0,0,0,1.472,9.128,13.416,13.416,0,0,0,.294,15.606C0,18.256,0,19.433,0,26.5s0,8.244.294,10.894a18.178,18.178,0,0,0,1.178,6.478,11.527,11.527,0,0,0,2.944,4.711,11.527,11.527,0,0,0,4.711,2.944,18.178,18.178,0,0,0,6.478,1.178C18.256,53,19.433,53,26.5,53s8.244,0,10.894-.294a18.178,18.178,0,0,0,6.478-1.178,12.353,12.353,0,0,0,7.656-7.656,18.178,18.178,0,0,0,1.178-6.478c0-2.944.294-3.828.294-10.894s0-8.244-.294-10.894a18.178,18.178,0,0,0-1.178-6.478,11.527,11.527,0,0,0-2.944-4.711,11.527,11.527,0,0,0-4.711-2.944A18.178,18.178,0,0,0,37.394.294C34.744,0,33.567,0,26.5,0m0,12.956A13.326,13.326,0,0,0,12.956,26.5,13.544,13.544,0,1,0,26.5,12.956m0,22.378A8.676,8.676,0,0,1,17.667,26.5,8.676,8.676,0,0,1,26.5,17.667,8.676,8.676,0,0,1,35.333,26.5,8.676,8.676,0,0,1,26.5,35.333M40.633,9.128a3.239,3.239,0,1,0,3.239,3.239,3.268,3.268,0,0,0-3.239-3.239" fill="#fff" fill-rule="evenodd"/>
</svg>
