<svg xmlns="http://www.w3.org/2000/svg" xmlns:xlink="http://www.w3.org/1999/xlink" viewBox="0 0 1128.86 1091.76"><defs><style>.cls-1,.cls-10,.cls-11,.cls-12,.cls-15,.cls-16,.cls-2,.cls-3,.cls-4,.cls-5,.cls-6,.cls-7,.cls-8,.cls-9{stroke:#000;}.cls-1,.cls-10,.cls-11,.cls-12,.cls-15,.cls-16,.cls-17,.cls-18,.cls-2,.cls-3,.cls-4,.cls-5,.cls-6,.cls-7,.cls-8,.cls-9{stroke-miterlimit:10;}.cls-1{fill:url(#linear-gradient);}.cls-2{fill:url(#linear-gradient-2);}.cls-3{fill:url(#linear-gradient-3);}.cls-4{fill:url(#linear-gradient-4);}.cls-5{fill:url(#linear-gradient-5);}.cls-6{fill:url(#linear-gradient-6);}.cls-7{fill:url(#linear-gradient-7);}.cls-8{fill:url(#linear-gradient-8);}.cls-9{fill:url(#linear-gradient-9);}.cls-10{fill:url(#linear-gradient-10);}.cls-11{fill:url(#linear-gradient-11);}.cls-12{fill:url(#linear-gradient-12);}.cls-13{fill:#931982;}.cls-14{fill:#b90052;}.cls-15{fill:#e0e0e0;stroke-width:6px;}.cls-16{fill:#f7f7f7;stroke-width:4px;}.cls-17,.cls-18{fill:none;}.cls-17{stroke:#1900a0;stroke-width:21px;}.cls-18{stroke:#fdfdff;stroke-width:3px;}</style><linearGradient id="linear-gradient" x1="644.51" y1="1188.55" x2="643.93" y2="158.14" gradientUnits="userSpaceOnUse"><stop offset="0" stop-color="#c7003d"/><stop offset="0.09" stop-color="#c90a3b"/><stop offset="0.23" stop-color="#cf2534"/><stop offset="0.42" stop-color="#d9512a"/><stop offset="0.64" stop-color="#e68e1b"/><stop offset="0.89" stop-color="#f7db09"/><stop offset="1" stop-color="#ff0"/></linearGradient><linearGradient id="linear-gradient-2" x1="644.34" y1="1188.39" x2="643.76" y2="158.34" xlink:href="#linear-gradient"/><linearGradient id="linear-gradient-3" x1="644.46" y1="1188.49" x2="643.88" y2="158.14" xlink:href="#linear-gradient"/><linearGradient id="linear-gradient-4" x1="644.37" y1="1188.39" x2="643.78" y2="158.33" xlink:href="#linear-gradient"/><linearGradient id="linear-gradient-5" x1="644.49" y1="1188.52" x2="643.91" y2="158.14" xlink:href="#linear-gradient"/><linearGradient id="linear-gradient-6" x1="644.39" y1="1188.41" x2="643.81" y2="158.24" xlink:href="#linear-gradient"/><linearGradient id="linear-gradient-7" x1="644.44" y1="1188.46" x2="643.86" y2="158.16" xlink:href="#linear-gradient"/><linearGradient id="linear-gradient-8" x1="644.42" y1="1188.44" x2="643.83" y2="158.19" xlink:href="#linear-gradient"/><linearGradient id="linear-gradient-9" x1="644.54" y1="1188.58" x2="643.96" y2="158.15" xlink:href="#linear-gradient"/><linearGradient id="linear-gradient-10" x1="644.63" y1="1188.41" x2="644.04" y2="158.55" xlink:href="#linear-gradient"/><linearGradient id="linear-gradient-11" x1="644.59" y1="1188.64" x2="644.01" y2="158.19" xlink:href="#linear-gradient"/><linearGradient id="linear-gradient-12" x1="644.56" y1="1188.61" x2="643.98" y2="158.17" xlink:href="#linear-gradient"/></defs><g id="Layer_1" data-name="Layer 1"><path class="cls-1" d="M168.28,907.91h952.11q9.77-18.23,18-37.27H150.24Q158.51,889.68,168.28,907.91Z" transform="translate(-51.22 -156.89)"/><path class="cls-2" d="M644.33,1187.23A557.24,557.24,0,0,0,760.67,1175H528A557.15,557.15,0,0,0,644.33,1187.23Z" transform="translate(-51.22 -156.89)"/><path class="cls-3" d="M227.1,994.88h834.47q15-18,28.4-37.27H198.69Q212,976.87,227.1,994.88Z" transform="translate(-51.22 -156.89)"/><path class="cls-4" d="M502,1168.82H786.68a545.29,545.29,0,0,0,100-37.27H402A545,545,0,0,0,502,1168.82Z" transform="translate(-51.22 -156.89)"/><path class="cls-5" d="M194.45,951.4h899.77q12.16-18.14,22.78-37.28H171.67Q182.26,933.26,194.45,951.4Z" transform="translate(-51.22 -156.89)"/><path class="cls-6" d="M389.68,1125.33H899a538.88,538.88,0,0,0,61.2-37.27H328.48A538.88,538.88,0,0,0,389.68,1125.33Z" transform="translate(-51.22 -156.89)"/><path class="cls-7" d="M267.9,1038.36h752.86q18.69-17.77,35.52-37.27H232.39Q249.19,1020.56,267.9,1038.36Z" transform="translate(-51.22 -156.89)"/><path class="cls-8" d="M319.85,1081.85h649a532.71,532.71,0,0,0,45.31-37.27H274.54A532.71,532.71,0,0,0,319.85,1081.85Z" transform="translate(-51.22 -156.89)"/><path class="cls-9" d="M147.59,864.43h993.49q7.65-18.3,13.87-37.28H133.72Q139.93,846.13,147.59,864.43Z" transform="translate(-51.22 -156.89)"/><path class="cls-10" d="M1179.58,672.31c0-284.38-239.64-514.92-535.25-514.92S109.09,387.93,109.09,672.31a502.11,502.11,0,0,0,3.8,61.66H1175.77A500.14,500.14,0,0,0,1179.58,672.31Z" transform="translate(-51.22 -156.89)"/><path class="cls-11" d="M113.7,740.19q2.6,18.85,6.56,37.27H1168.41q4-18.4,6.55-37.27Z" transform="translate(-51.22 -156.89)"/><path class="cls-12" d="M131.73,820.94H1156.94q5.74-18.36,10.09-37.27H121.64Q126,802.57,131.73,820.94Z" transform="translate(-51.22 -156.89)"/></g><g id="Layer_7" data-name="Layer 7"><polygon class="cls-13" points="963.1 64.54 884.4 570.04 805.71 1075.54 414.21 771.64 22.71 467.73 492.9 266.14 963.1 64.54"/></g><g id="Layer_8" data-name="Layer 8"><polygon class="cls-14" points="1056.77 137.91 871.66 614.83 686.55 1091.76 369.2 711.07 51.86 330.38 554.32 234.15 1056.77 137.91"/></g><g id="Layer_5" data-name="Layer 5"><path class="cls-15" d="M488.26,673.58l-53.1,163.73-44.23-11.19L388.81,745l-24.13,74.43-42.2-10.68,53.1-163.73,42.19,10.68,4.38,80.88,23.91-73.72Z" transform="translate(-51.22 -156.89)"/><path class="cls-15" d="M559,691.48l-53.1,163.73-50.46-12.77,53.09-163.73Z" transform="translate(-51.22 -156.89)"/><path class="cls-15" d="M691.91,725.12,638.82,888.86l-44.24-11.2-2.11-81.07L568.33,871l-42.19-10.68,53.1-163.73,42.19,10.67,4.38,80.89,23.91-73.72Z" transform="translate(-51.22 -156.89)"/><path class="cls-15" d="M773.9,745.88,738.42,855.3q-8,24.59-10.85,31.46a25,25,0,0,1-9.59,11.3,28.31,28.31,0,0,1-15.74,4.5q-9,.06-25.8-4.18L651.16,892l9.28-28.62q4.45,1.46,6.5,2a15.37,15.37,0,0,0,9.23-.08,9.22,9.22,0,0,0,5.37-4.55,111.87,111.87,0,0,0,4.54-12.42L723.44,733.1Z" transform="translate(-51.22 -156.89)"/><path class="cls-15" d="M880.68,772.9l-24.24,171-51.57-13.05,6.83-30.12-18.05-4.57-12.58,28.67L728.9,911.66l78.84-157.22Zm-60.89,98.51q5.19-28.78,14.62-70.71-23,45.07-32,66.32Z" transform="translate(-51.22 -156.89)"/></g><g id="Layer_3" data-name="Layer 3"><path class="cls-16" d="M531,507.2q5.47-1.62,22.37-7.95,4.93-1.9,26.61-8.84,8.82-2.73,22.23-5.73c5.44-1.23,9.06-1.62,10.87-1.14a4.8,4.8,0,0,1,2.74,2.17,7.28,7.28,0,0,1,.66,5.21,6.58,6.58,0,0,1-4.06,4.91q-1.59.78-7.68,1.31-39.63,6.24-68.48,22.57c-4.15,8.47-7.77,18-10.85,26.32q-9.74,26.63-13.87,45.58-1.47,6.78-.7,10.62t3.81,4.65q6,1.56,29.91-21.77c3-2.93,5.21-4.21,6.57-3.86q2.58.68,1.82,4.19-1.1,5-14.35,18.27-19.14,19.41-30.76,16.37-9.71-2.54-10.35-14.9a69.51,69.51,0,0,1,1.91-18.6,237.54,237.54,0,0,1,15.11-45.26c6.92-15.7,11.16-26.63,12.71-30.46-6.09,7.51-17.15,21.3-33.18,39-19.53,22.85-32.35,40.58-38.46,55.51q-3.26,7.25-8,6-3.17-.82-4.14-4.53a11.45,11.45,0,0,1,.14-5q2.13-9.78,16.19-30,8-11.31,21.05-27.65c3.26-4,10.29-10.66,21.08-22.25,23.73-25.72,39.33-46.07,46.77-58.71,2.73-4.51,4.6-7.24,5.61-8.22a5.86,5.86,0,0,1,5.59-1.59,4.4,4.4,0,0,1,2.58,1.87,6,6,0,0,1,.76,4.7Q560.81,471,531,507.2Z" transform="translate(-51.22 -156.89)"/><path class="cls-16" d="M578.93,589.72q1.8-1.12,3.48-2.28,29.16-19.44,37.17-17.35,4.41,1.15,3.23,6.54-.82,3.76-5.89,7.88-27.66,22.37-32.3,43.69a28.6,28.6,0,0,0,.51,14.06,11.19,11.19,0,0,1,.6,4.93,4,4,0,0,1-2,2.53,4.38,4.38,0,0,1-3.88.85q-4.62-1.22-6.36-8.56a34.65,34.65,0,0,1,.21-15.73q3.69-16.93,19.68-34.51-17.71,6.9-37,31.19-4.83,5.77-8.67,4.77a4.26,4.26,0,0,1-2.83-2.33,6.86,6.86,0,0,1-.59-4.93q1.47-6.78,21.61-31.89Q576.78,575,582.6,569.06t8.84-5a4.13,4.13,0,0,1,2.49,2.24,6.17,6.17,0,0,1,.71,4.43q-.6,2.76-5,7A133.23,133.23,0,0,0,578.93,589.72Z" transform="translate(-51.22 -156.89)"/><path class="cls-16" d="M622.19,621l-.49,2.26a9.4,9.4,0,0,0,.2,5.1q1.82,5.37,8.24,7.05,14.1,3.69,37.86-15.58c2.78-2.19,4.93-3.09,6.43-2.69a3.08,3.08,0,0,1,2,2,3.7,3.7,0,0,1,.27,2.05q-1.08,4.9-14.45,13.74a80.53,80.53,0,0,1-21.3,10.22q-10.86,3.27-19.09,1.12a17,17,0,0,1-11.89-10q-2.29-5.37-.59-13.15,4.62-21.21,27-36.86,18.17-12.75,29-9.93a8.65,8.65,0,0,1,4.86,3.39,9.41,9.41,0,0,1,1.43,7.67q-1.46,6.65-9.08,14.87Q646.76,619.36,622.19,621Zm4.62-9.14a43.15,43.15,0,0,0,13.89-3.53,52.36,52.36,0,0,0,15.86-12,11.15,11.15,0,0,0,2.87-5c.36-1.68-.17-2.7-1.6-3.07q-2.94-.76-9.42,2.71Q636.83,597.13,626.81,611.89Z" transform="translate(-51.22 -156.89)"/><path class="cls-16" d="M685.6,637.59l-.49,2.26a9.36,9.36,0,0,0,.2,5.09q1.82,5.38,8.24,7.06,14.12,3.68,37.86-15.58,4.19-3.28,6.43-2.7a3.1,3.1,0,0,1,2,2,3.73,3.73,0,0,1,.27,2.06q-1.07,4.89-14.45,13.73a79.91,79.91,0,0,1-21.3,10.22q-10.86,3.27-19.09,1.12a17,17,0,0,1-11.89-10q-2.3-5.37-.59-13.15,4.62-21.21,27-36.85,18.16-12.77,29-9.94a8.65,8.65,0,0,1,4.86,3.39,9.37,9.37,0,0,1,1.43,7.67q-1.44,6.66-9.08,14.87Q710.17,635.91,685.6,637.59Zm4.62-9.14a42.88,42.88,0,0,0,13.89-3.54,52.2,52.2,0,0,0,15.86-12,11.15,11.15,0,0,0,2.87-5c.36-1.67-.17-2.7-1.6-3.07-2-.51-5.09.39-9.42,2.71Q700.24,613.69,690.22,628.45Z" transform="translate(-51.22 -156.89)"/><path class="cls-16" d="M796.16,606.37q9.24,2.42,6.51,15Q799,638,779.58,660q-21.17,23.79-35.27,20.1-6.54-1.71-8.11-9.28a20,20,0,0,1,.19-8.57Q739.9,646.2,753.93,630q13.05-15,27.68-21.42Q790.18,604.8,796.16,606.37Zm-22.08,44.37c-1.51-2.16-2.17-3.71-2-4.63.15-.67,1.75-2.19,4.81-4.58q12.93-10,14.62-17.8a4.32,4.32,0,0,0-.13-2.15A3.21,3.21,0,0,0,789,619q-3.62-.94-12.3,5a76.68,76.68,0,0,0-18.28,17.11q-8.17,10.73-9.93,18.76a7.31,7.31,0,0,0,.19,4,4.71,4.71,0,0,0,3.23,3.23q5.42,1.41,13.6-6a38.64,38.64,0,0,0,6.09-6.63A24.33,24.33,0,0,0,774.08,650.74Z" transform="translate(-51.22 -156.89)"/><path class="cls-16" d="M818.81,652.34c1.2-.75,2.36-2.67,3.48-3.44q29.16-19.44,37.18-17.35,4.39,1.16,3.22,6.55-.83,3.75-5.89,7.87-27.66,22.37-32.3,43.69a28.72,28.72,0,0,0,.51,14.06,11,11,0,0,1,.6,4.93,4,4,0,0,1-2,2.53,4.38,4.38,0,0,1-3.88.85q-4.62-1.21-6.36-8.56c-1.14-4.63-1.07-8.71.21-14.57,2.46-11.29,9-23.95,19.69-35.67-11.82,4.6-24.15,16.16-37,32.35q-4.83,5.77-8.67,4.77A4.23,4.23,0,0,1,784.8,688a6.86,6.86,0,0,1-.6-4.93q1.49-6.78,21.62-31.89,10.84-13.62,16.66-19.52c3.86-3.86,6.81-6.68,8.84-6.15a4.16,4.16,0,0,1,2.49,2.24,6.17,6.17,0,0,1,.71,4.43q-.6,2.76-5,7C825.25,643.53,821.68,648.67,818.81,652.34Z" transform="translate(-51.22 -156.89)"/></g><g id="Layer_6" data-name="Layer 6"><polygon class="cls-17" points="800.77 44.7 866.55 520.22 932.33 995.74 476.77 800.43 21.22 605.13 411 324.91 800.77 44.7"/></g><g id="Layer_9" data-name="Layer 9"><polyline class="cls-18" points="24.36 601.72 409.14 326.51 801.46 43.03 867.24 518.55 932.47 995.33 476.92 800.03 19.36 606.72"/></g></svg>