<?xml version="1.0" encoding="utf-8"?>
<!-- Generator: Adobe Illustrator 24.1.1, SVG Export Plug-In . SVG Version: 6.00 Build 0)  -->
<svg version="1.1" xmlns="http://www.w3.org/2000/svg" xmlns:xlink="http://www.w3.org/1999/xlink" x="0px" y="0px"
	 viewBox="0 0 1280 1024" style="enable-background:new 0 0 1280 1024;" xml:space="preserve">
<style type="text/css">
	.st0{display:none;}
	.st1{display:inline;}
	.st2{fill:url(#SVGID_1_);}
	.st3{fill:url(#SVGID_2_);}
	.st4{fill:url(#SVGID_3_);}
	.st5{fill:url(#SVGID_4_);}
	.st6{fill:url(#SVGID_5_);}
	.st7{fill:url(#SVGID_6_);}
	.st8{fill:url(#SVGID_7_);}
	.st9{fill:url(#SVGID_8_);}
	.st10{fill:url(#SVGID_9_);}
	.st11{fill:url(#SVGID_10_);}
	.st12{fill:url(#SVGID_11_);}
	.st13{fill:url(#SVGID_12_);}
	.st14{fill:none;}
	.st15{font-family:'Impact';}
	.st16{font-size:250px;}
	.st17{font-family:'FreestyleScript-Regular';}
	.st18{font-size:200px;}
</style>
<g id="Layer_2" class="st0">
	<rect class="st1" width="1280" height="1024"/>
</g>
<g id="Layer_1">
	<g>
		<linearGradient id="SVGID_1_" gradientUnits="userSpaceOnUse" x1="640.1622" y1="981.9452" x2="639.6365" y2="50.5905">
			<stop  offset="0" style="stop-color:#B70042"/>
			<stop  offset="1" style="stop-color:#FFFF00"/>
		</linearGradient>
		<path class="st2" d="M225.82,728.29h828.36c5.66-10.99,10.9-22.23,15.7-33.71H210.13C214.92,706.06,220.16,717.3,225.82,728.29z"
			/>
		<linearGradient id="SVGID_2_" gradientUnits="userSpaceOnUse" x1="640.0068" y1="981.9453" x2="639.4811" y2="50.5906">
			<stop  offset="0" style="stop-color:#B70042"/>
			<stop  offset="1" style="stop-color:#FFFF00"/>
		</linearGradient>
		<path class="st3" d="M640,980.9c34.76,0,68.63-3.82,101.21-11.04H538.79C571.37,977.09,605.24,980.9,640,980.9z"/>
		<linearGradient id="SVGID_3_" gradientUnits="userSpaceOnUse" x1="640.1178" y1="981.9453" x2="639.5921" y2="50.5905">
			<stop  offset="0" style="stop-color:#B70042"/>
			<stop  offset="1" style="stop-color:#FFFF00"/>
		</linearGradient>
		<path class="st4" d="M277,806.94h726c8.73-10.85,16.97-22.1,24.72-33.71H252.28C260.03,784.85,268.27,796.1,277,806.94z"/>
		<linearGradient id="SVGID_4_" gradientUnits="userSpaceOnUse" x1="640.029" y1="981.9453" x2="639.5033" y2="50.5906">
			<stop  offset="0" style="stop-color:#B70042"/>
			<stop  offset="1" style="stop-color:#FFFF00"/>
		</linearGradient>
		<path class="st5" d="M516.16,964.25h247.69c30.36-8.35,59.47-19.7,87.01-33.71h-421.7C456.69,944.55,485.8,955.89,516.16,964.25z"
			/>
		<linearGradient id="SVGID_5_" gradientUnits="userSpaceOnUse" x1="640.14" y1="981.9453" x2="639.6143" y2="50.5905">
			<stop  offset="0" style="stop-color:#B70042"/>
			<stop  offset="1" style="stop-color:#FFFF00"/>
		</linearGradient>
		<path class="st6" d="M248.59,767.62h782.81c7.06-10.93,13.68-22.17,19.82-33.71H228.77C234.91,745.44,241.53,756.69,248.59,767.62
			z"/>
		<linearGradient id="SVGID_6_" gradientUnits="userSpaceOnUse" x1="640.0512" y1="981.9453" x2="639.5255" y2="50.5906">
			<stop  offset="0" style="stop-color:#B70042"/>
			<stop  offset="1" style="stop-color:#FFFF00"/>
		</linearGradient>
		<path class="st7" d="M418.45,924.92h443.11c18.54-10.05,36.33-21.32,53.25-33.71H365.2C382.12,903.6,399.9,914.87,418.45,924.92z"
			/>
		<linearGradient id="SVGID_7_" gradientUnits="userSpaceOnUse" x1="640.0956" y1="981.9453" x2="639.5699" y2="50.5906">
			<stop  offset="0" style="stop-color:#B70042"/>
			<stop  offset="1" style="stop-color:#FFFF00"/>
		</linearGradient>
		<path class="st8" d="M312.5,846.27h655c10.84-10.72,21.15-21.97,30.9-33.71H281.6C291.35,824.3,301.66,835.55,312.5,846.27z"/>
		<linearGradient id="SVGID_8_" gradientUnits="userSpaceOnUse" x1="640.0734" y1="981.9453" x2="639.5477" y2="50.5906">
			<stop  offset="0" style="stop-color:#B70042"/>
			<stop  offset="1" style="stop-color:#FFFF00"/>
		</linearGradient>
		<path class="st9" d="M357.69,885.6h564.62c13.76-10.51,26.92-21.76,39.42-33.71H318.27C330.76,863.83,343.92,875.09,357.69,885.6z
			"/>
		<linearGradient id="SVGID_9_" gradientUnits="userSpaceOnUse" x1="640.1844" y1="981.9452" x2="639.6588" y2="50.5905">
			<stop  offset="0" style="stop-color:#B70042"/>
			<stop  offset="1" style="stop-color:#FFFF00"/>
		</linearGradient>
		<path class="st10" d="M207.82,688.97h864.35c4.44-11.03,8.47-22.28,12.07-33.71h-888.5C199.35,666.69,203.38,677.93,207.82,688.97
			z"/>
		<linearGradient id="SVGID_10_" gradientUnits="userSpaceOnUse" x1="640.2635" y1="981.9451" x2="639.7378" y2="50.5905">
			<stop  offset="0" style="stop-color:#B70042"/>
			<stop  offset="1" style="stop-color:#FFFF00"/>
		</linearGradient>
		<path class="st11" d="M1105.68,515.23c0-257.19-208.49-465.68-465.68-465.68S174.32,258.04,174.32,515.23
			c0,18.87,1.13,37.48,3.31,55.76h924.73C1104.55,552.7,1105.68,534.1,1105.68,515.23z"/>
		<linearGradient id="SVGID_11_" gradientUnits="userSpaceOnUse" x1="640.2288" y1="981.9452" x2="639.7031" y2="50.5905">
			<stop  offset="0" style="stop-color:#B70042"/>
			<stop  offset="1" style="stop-color:#FFFF00"/>
		</linearGradient>
		<path class="st12" d="M178.34,576.61c1.5,11.37,3.4,22.61,5.7,33.71h911.91c2.3-11.1,4.21-22.34,5.7-33.71H178.34z"/>
		<linearGradient id="SVGID_12_" gradientUnits="userSpaceOnUse" x1="640.2066" y1="981.9452" x2="639.6809" y2="50.5905">
			<stop  offset="0" style="stop-color:#B70042"/>
			<stop  offset="1" style="stop-color:#FFFF00"/>
		</linearGradient>
		<path class="st13" d="M194.02,649.64h891.96c3.33-11.07,6.26-22.31,8.78-33.71H185.25C187.76,627.33,190.69,638.57,194.02,649.64z
			"/>
	</g>
	<path d="M965.08,876.73L173.43,614.77L796.12,60.16L965.08,876.73z M191.06,611.12l762.05,252.16L790.47,77.25L191.06,611.12z"/>
</g>
<g id="Layer_3">
	<rect x="354.6" y="511" class="st14" width="556.35" height="209"/>
	<text transform="matrix(1 0 0 1 354.5999 708.7428)" class="st15 st16">NINJA</text>
	<text transform="matrix(1 0 0 1 459.3549 475.3547)" class="st17 st18">Kneeon</text>
</g>
</svg>
