<svg xmlns="http://www.w3.org/2000/svg" xmlns:xlink="http://www.w3.org/1999/xlink" width="674" height="523" viewBox="0 0 674 523">
  <defs>
    <clipPath id="clip-path">
      <rect id="Rectangle_451" data-name="Rectangle 451" width="674" height="523" transform="translate(278 1373)" fill="#bce0fd"/>
    </clipPath>
    <linearGradient id="linear-gradient" x1="0.5" y1="8.53" x2="0.5" y2="-19.117" gradientUnits="objectBoundingBox">
      <stop offset="0" stop-color="#c7003d"/>
      <stop offset="0.09" stop-color="#c90a3b"/>
      <stop offset="0.23" stop-color="#cf2534"/>
      <stop offset="0.42" stop-color="#d9512a"/>
      <stop offset="0.64" stop-color="#e68e1b"/>
      <stop offset="0.89" stop-color="#f7db09"/>
      <stop offset="1" stop-color="#ff0"/>
    </linearGradient>
    <linearGradient id="linear-gradient-2" x1="0.5" y1="1.095" x2="0.498" y2="-83.129" xlink:href="#linear-gradient"/>
    <linearGradient id="linear-gradient-3" x1="0.5" y1="6.195" x2="0.499" y2="-21.451" xlink:href="#linear-gradient"/>
    <linearGradient id="linear-gradient-4" x1="0.5" y1="1.525" x2="0.499" y2="-26.113" xlink:href="#linear-gradient"/>
    <linearGradient id="linear-gradient-5" x1="0.5" y1="7.361" x2="0.5" y2="-20.278" xlink:href="#linear-gradient"/>
    <linearGradient id="linear-gradient-6" x1="0.5" y1="2.693" x2="0.499" y2="-24.948" xlink:href="#linear-gradient"/>
    <linearGradient id="linear-gradient-7" x1="0.5" y1="5.027" x2="0.499" y2="-22.617" xlink:href="#linear-gradient"/>
    <linearGradient id="linear-gradient-8" x1="0.5" y1="3.86" x2="0.499" y2="-23.783" xlink:href="#linear-gradient"/>
    <linearGradient id="linear-gradient-9" x1="0.5" y1="9.695" x2="0.5" y2="-17.945" xlink:href="#linear-gradient"/>
    <linearGradient id="linear-gradient-10" x1="0.5" y1="1.788" x2="0.5" y2="0.002" xlink:href="#linear-gradient"/>
    <linearGradient id="linear-gradient-11" x1="0.5" y1="12.032" x2="0.5" y2="-15.616" xlink:href="#linear-gradient"/>
    <linearGradient id="linear-gradient-12" x1="0.5" y1="10.865" x2="0.5" y2="-16.783" xlink:href="#linear-gradient"/>
  </defs>
  <g id="Mask_Group_1" data-name="Mask Group 1" transform="translate(-278 -1373)" clip-path="url(#clip-path)">
    <g id="kaitlin_logo2" transform="translate(344.614 1373)">
      <g id="Layer_1" data-name="Layer 1">
        <path id="Path_605" data-name="Path 605" d="M80.613,434.928h456.1q4.68-8.733,8.623-17.854H71.971Q75.933,426.195,80.613,434.928Z" transform="translate(-24.537 -75.157)" stroke="#000" stroke-miterlimit="10" stroke-width="0.479" fill="url(#linear-gradient)"/>
        <path id="Path_606" data-name="Path 606" d="M308.662,568.734a266.943,266.943,0,0,0,55.732-5.859H252.935a266.9,266.9,0,0,0,55.727,5.859Z" transform="translate(-24.537 -75.157)" stroke="#000" stroke-miterlimit="10" stroke-width="0.479" fill="url(#linear-gradient-2)"/>
        <path id="Path_607" data-name="Path 607" d="M108.791,476.59H508.538q7.186-8.623,13.6-17.854H95.181Q101.557,467.963,108.791,476.59Z" transform="translate(-24.537 -75.157)" stroke="#000" stroke-miterlimit="10" stroke-width="0.479" fill="url(#linear-gradient-3)"/>
        <path id="Path_608" data-name="Path 608" d="M240.48,559.915H376.854a261.222,261.222,0,0,0,47.9-17.854H192.575a261.082,261.082,0,0,0,47.9,17.854Z" transform="translate(-24.537 -75.157)" stroke="#000" stroke-miterlimit="10" stroke-width="0.479" fill="url(#linear-gradient-4)"/>
        <path id="Path_609" data-name="Path 609" d="M93.15,455.762H524.178q5.825-8.69,10.913-17.859H82.237Q87.31,447.072,93.15,455.762Z" transform="translate(-24.537 -75.157)" stroke="#000" stroke-miterlimit="10" stroke-width="0.479" fill="url(#linear-gradient-5)"/>
        <path id="Path_610" data-name="Path 610" d="M186.673,539.081H430.66a258.134,258.134,0,0,0,29.318-17.854H157.356a258.139,258.139,0,0,0,29.317,17.854Z" transform="translate(-24.537 -75.157)" stroke="#000" stroke-miterlimit="10" stroke-width="0.479" fill="url(#linear-gradient-6)"/>
        <path id="Path_611" data-name="Path 611" d="M128.336,497.419H488.988q8.953-8.513,17.016-17.854H111.325Q119.373,488.892,128.336,497.419Z" transform="translate(-24.537 -75.157)" stroke="#000" stroke-miterlimit="10" stroke-width="0.479" fill="url(#linear-gradient-7)"/>
        <path id="Path_612" data-name="Path 612" d="M153.222,518.253h310.9A255.192,255.192,0,0,0,485.826,500.4H131.516a255.2,255.2,0,0,0,21.705,17.854Z" transform="translate(-24.537 -75.157)" stroke="#000" stroke-miterlimit="10" stroke-width="0.479" fill="url(#linear-gradient-8)"/>
        <path id="Path_613" data-name="Path 613" d="M70.7,414.1H546.626q3.665-8.766,6.644-17.859H64.058Q67.032,405.333,70.7,414.1Z" transform="translate(-24.537 -75.157)" stroke="#000" stroke-miterlimit="10" stroke-width="0.479" fill="url(#linear-gradient-9)"/>
        <path id="Path_614" data-name="Path 614" d="M565.07,322.065c0-136.23-114.8-246.669-256.408-246.669s-256.4,110.439-256.4,246.669A240.537,240.537,0,0,0,54.079,351.6H563.244A239.575,239.575,0,0,0,565.07,322.065Z" transform="translate(-24.537 -75.157)" stroke="#000" stroke-miterlimit="10" stroke-width="0.479" fill="url(#linear-gradient-10)"/>
        <path id="Path_615" data-name="Path 615" d="M54.467,354.583q1.246,9.03,3.143,17.854H559.719q1.916-8.814,3.138-17.854Z" transform="translate(-24.537 -75.157)" stroke="#000" stroke-miterlimit="10" stroke-width="0.479" fill="url(#linear-gradient-11)"/>
        <path id="Path_616" data-name="Path 616" d="M63.1,393.266h491.12q2.75-8.8,4.833-17.854H58.271Q60.359,384.466,63.1,393.266Z" transform="translate(-24.537 -75.157)" stroke="#000" stroke-miterlimit="10" stroke-width="0.479" fill="url(#linear-gradient-12)"/>
      </g>
      <g id="Layer_7" data-name="Layer 7">
        <path id="Path_617" data-name="Path 617" d="M461.366,30.917l-37.7,242.156L385.97,515.23,198.424,369.649,10.879,224.063l225.241-96.57Z" fill="#931982"/>
      </g>
      <g id="Layer_8" data-name="Layer 8">
        <path id="Path_618" data-name="Path 618" d="M506.238,66.065,417.563,294.53,328.887,523,176.863,340.633,24.843,158.266l240.7-46.1Z" fill="#b90052"/>
      </g>
      <g id="Layer_5" data-name="Layer 5">
        <path id="Path_619" data-name="Path 619" d="M233.9,322.674,208.46,401.108l-21.188-5.361-1.016-38.86L174.7,392.542l-20.216-5.116,25.437-78.434,20.211,5.116,2.1,38.745,11.454-35.315Z" transform="translate(-24.537 -75.157)" fill="#e0e0e0" stroke="#000" stroke-miterlimit="10" stroke-width="2.874"/>
        <path id="Path_620" data-name="Path 620" d="M267.785,331.249l-25.437,78.434-24.173-6.117,25.432-78.434Z" transform="translate(-24.537 -75.157)" fill="#e0e0e0" stroke="#000" stroke-miterlimit="10" stroke-width="2.874"/>
        <path id="Path_621" data-name="Path 621" d="M331.455,347.364,306.022,425.8l-21.193-5.365L283.819,381.6l-11.564,35.646-20.211-5.116L277.481,333.7l20.211,5.111,2.1,38.75,11.454-35.315Z" transform="translate(-24.537 -75.157)" fill="#e0e0e0" stroke="#000" stroke-miterlimit="10" stroke-width="2.874"/>
        <path id="Path_622" data-name="Path 622" d="M370.731,357.309l-17,52.417q-3.832,11.78-5.2,15.071a11.976,11.976,0,0,1-4.594,5.413,13.562,13.562,0,0,1-7.54,2.156,53.376,53.376,0,0,1-12.359-2l-12.11-3.056,4.446-13.71q2.132.7,3.114.958a7.363,7.363,0,0,0,4.422-.038,4.417,4.417,0,0,0,2.573-2.18,53.6,53.6,0,0,0,2.175-5.95l17.9-55.2Z" transform="translate(-24.537 -75.157)" fill="#e0e0e0" stroke="#000" stroke-miterlimit="10" stroke-width="2.874"/>
        <path id="Path_623" data-name="Path 623" d="M421.884,370.252l-11.612,81.916-24.7-6.251,3.272-14.429-8.647-2.189-6.026,13.734-24.992-6.309,37.768-75.315Zm-29.169,47.191q2.486-13.787,7-33.873Q388.7,405.16,384.389,415.34Z" transform="translate(-24.537 -75.157)" fill="#e0e0e0" stroke="#000" stroke-miterlimit="10" stroke-width="2.874"/>
      </g>
      <g id="Layer_3" data-name="Layer 3">
        <path id="Path_624" data-name="Path 624" d="M254.372,242.971q2.62-.776,10.716-3.808,2.362-.91,12.747-4.235,4.225-1.308,10.649-2.745c2.606-.589,4.34-.776,5.207-.546a2.3,2.3,0,0,1,1.313,1.04,3.488,3.488,0,0,1,.316,2.5,3.152,3.152,0,0,1-1.945,2.352,13.413,13.413,0,0,1-3.679.628q-18.984,2.989-32.8,10.812c-1.988,4.057-3.722,8.623-5.2,12.608a172.284,172.284,0,0,0-6.644,21.835,13.137,13.137,0,0,0-.335,5.087,2.564,2.564,0,0,0,1.825,2.228q2.874.747,14.328-10.429c1.437-1.4,2.5-2.017,3.147-1.849q1.236.326.872,2.007-.527,2.4-6.874,8.752-9.169,9.3-14.735,7.842-4.652-1.217-4.958-7.138a33.3,33.3,0,0,1,.915-8.91,113.792,113.792,0,0,1,7.238-21.682c3.315-7.521,5.346-12.757,6.089-14.592-2.917,3.6-8.216,10.2-15.895,18.683-9.356,10.946-15.5,19.44-18.424,26.592q-1.562,3.473-3.832,2.874a2.732,2.732,0,0,1-1.983-2.17,5.485,5.485,0,0,1,.067-2.4q1.02-4.685,7.756-14.371,3.832-5.418,10.084-13.246c1.562-1.916,4.929-5.107,10.1-10.659,11.368-12.321,18.841-22.07,22.4-28.125a25.459,25.459,0,0,1,2.687-3.938,2.807,2.807,0,0,1,2.678-.762,2.108,2.108,0,0,1,1.236.9,2.874,2.874,0,0,1,.364,2.252Q268.652,225.629,254.372,242.971Z" transform="translate(-24.537 -75.157)" fill="#f7f7f7" stroke="#000" stroke-miterlimit="10" stroke-width="1.916"/>
        <path id="Path_625" data-name="Path 625" d="M277.332,282.5q.862-.536,1.667-1.092,13.969-9.313,17.806-8.311,2.113.551,1.547,3.133a7.319,7.319,0,0,1-2.822,3.775q-13.25,10.716-15.473,20.929a13.7,13.7,0,0,0,.244,6.735,5.361,5.361,0,0,1,.287,2.362,1.916,1.916,0,0,1-.958,1.212,2.1,2.1,0,0,1-1.859.407q-2.213-.584-3.047-4.1a16.6,16.6,0,0,1,.1-7.535q1.768-8.11,9.428-16.532-8.484,3.305-17.725,14.941-2.314,2.764-4.153,2.285a2.041,2.041,0,0,1-1.356-1.116,3.286,3.286,0,0,1-.283-2.362q.7-3.248,10.352-15.277,5.212-6.505,8-9.351t4.235-2.4a1.978,1.978,0,0,1,1.193,1.073,2.956,2.956,0,0,1,.34,2.122,7.774,7.774,0,0,1-2.4,3.353A63.821,63.821,0,0,0,277.332,282.5Z" transform="translate(-24.537 -75.157)" fill="#f7f7f7" stroke="#000" stroke-miterlimit="10" stroke-width="1.916"/>
        <path id="Path_626" data-name="Path 626" d="M298.056,297.486l-.235,1.083a4.5,4.5,0,0,0,.1,2.443,5.2,5.2,0,0,0,3.947,3.377q6.754,1.768,18.137-7.464c1.332-1.049,2.362-1.48,3.08-1.289a1.476,1.476,0,0,1,.958.958,1.772,1.772,0,0,1,.129.982q-.517,2.347-6.922,6.582a38.578,38.578,0,0,1-10.2,4.9,16.882,16.882,0,0,1-9.145.537,8.144,8.144,0,0,1-5.7-4.79,10.313,10.313,0,0,1-.283-6.3q2.213-10.161,12.934-17.658,8.7-6.108,13.892-4.757a4.144,4.144,0,0,1,2.328,1.624,4.508,4.508,0,0,1,.685,3.674q-.7,3.186-4.35,7.123A27.889,27.889,0,0,1,298.056,297.486Zm2.213-4.378a20.67,20.67,0,0,0,6.654-1.691,25.082,25.082,0,0,0,7.6-5.748,5.342,5.342,0,0,0,1.375-2.4c.172-.8-.081-1.293-.766-1.471q-1.408-.364-4.513,1.3-5.547,2.951-10.347,10.022Z" transform="translate(-24.537 -75.157)" fill="#f7f7f7" stroke="#000" stroke-miterlimit="10" stroke-width="1.916"/>
        <path id="Path_627" data-name="Path 627" d="M328.432,305.433l-.235,1.083a4.483,4.483,0,0,0,.1,2.438,5.2,5.2,0,0,0,3.947,3.382q6.764,1.763,18.137-7.464,2.007-1.571,3.08-1.293a1.485,1.485,0,0,1,.958.958,1.787,1.787,0,0,1,.129.987q-.513,2.343-6.922,6.577a38.279,38.279,0,0,1-10.2,4.9,16.882,16.882,0,0,1-9.145.536,8.144,8.144,0,0,1-5.7-4.79,10.266,10.266,0,0,1-.283-6.3q2.213-10.161,12.934-17.653,8.7-6.117,13.892-4.762a4.143,4.143,0,0,1,2.328,1.624,4.489,4.489,0,0,1,.685,3.674q-.69,3.19-4.35,7.123A27.987,27.987,0,0,1,328.432,305.433Zm2.213-4.378a20.543,20.543,0,0,0,6.654-1.7,25.006,25.006,0,0,0,7.6-5.749,5.341,5.341,0,0,0,1.375-2.4c.172-.8-.081-1.293-.766-1.471-.958-.244-2.438.187-4.513,1.3Q335.445,293.984,330.645,301.055Z" transform="translate(-24.537 -75.157)" fill="#f7f7f7" stroke="#000" stroke-miterlimit="10" stroke-width="1.916"/>
        <path id="Path_628" data-name="Path 628" d="M381.395,290.477q4.426,1.159,3.119,7.186-1.758,7.966-11.061,18.505-10.141,11.4-16.9,9.629a5.234,5.234,0,0,1-3.885-4.446,9.581,9.581,0,0,1,.091-4.105q1.681-7.689,8.4-15.449a38.191,38.191,0,0,1,13.26-10.261Q378.53,289.725,381.395,290.477Zm-10.577,21.255c-.723-1.035-1.04-1.777-.958-2.218.072-.321.838-1.049,2.3-2.194q6.194-4.79,7-8.527a2.069,2.069,0,0,0-.062-1.03,1.538,1.538,0,0,0-1.14-1.236q-1.734-.45-5.892,2.4a36.733,36.733,0,0,0-8.757,8.2q-3.914,5.14-4.757,8.987a3.5,3.5,0,0,0,.091,1.916,2.256,2.256,0,0,0,1.547,1.547q2.6.675,6.515-2.874a18.507,18.507,0,0,0,2.917-3.176,11.656,11.656,0,0,0,1.188-1.787Z" transform="translate(-24.537 -75.157)" fill="#f7f7f7" stroke="#000" stroke-miterlimit="10" stroke-width="1.916"/>
        <path id="Path_629" data-name="Path 629" d="M392.245,312.5c.575-.359,1.131-1.279,1.667-1.648q13.969-9.313,17.811-8.311,2.1.556,1.543,3.138a7.359,7.359,0,0,1-2.822,3.77q-13.25,10.716-15.473,20.929a13.758,13.758,0,0,0,.244,6.735,5.269,5.269,0,0,1,.287,2.362,1.916,1.916,0,0,1-.958,1.212,2.1,2.1,0,0,1-1.859.407q-2.213-.58-3.047-4.1a14.272,14.272,0,0,1,.1-6.98c1.178-5.408,4.311-11.473,9.432-17.087-5.662,2.2-11.569,7.741-17.725,15.5q-2.314,2.764-4.153,2.285a2.026,2.026,0,0,1-1.341-1.126,3.286,3.286,0,0,1-.287-2.362q.714-3.248,10.357-15.277,5.193-6.525,7.981-9.351c1.849-1.849,3.262-3.2,4.235-2.946a1.993,1.993,0,0,1,1.193,1.073,2.956,2.956,0,0,1,.34,2.122,7.773,7.773,0,0,1-2.4,3.353A69.8,69.8,0,0,0,392.245,312.5Z" transform="translate(-24.537 -75.157)" fill="#f7f7f7" stroke="#000" stroke-miterlimit="10" stroke-width="1.916"/>
      </g>
      <g id="Layer_6" data-name="Layer 6">
        <path id="Path_630" data-name="Path 630" d="M383.6,21.413l31.511,227.795L446.626,477,228.393,383.44,10.165,289.883,196.887,155.646Z" fill="none" stroke="#1900a0" stroke-miterlimit="10" stroke-width="10.06"/>
      </g>
      <g id="Layer_9" data-name="Layer 9">
        <path id="Path_631" data-name="Path 631" d="M11.669,288.25,196,156.412l187.938-135.8,31.511,227.795,31.248,228.4L228.465,383.249,9.274,290.645" fill="none" stroke="#fdfdff" stroke-miterlimit="10" stroke-width="1.437"/>
      </g>
    </g>
  </g>
</svg>
